<svg xmlns="http://www.w3.org/2000/svg" viewBox="0 0 576 512" fill="white"><path d="M32 32C14.3 32 0 46.3 0 64V288c0 17.7 14.3 32 32 32H192c12.4 0 23.9-7.1 29.3-18.7l23.4-46.8c6.1-12.2 22.2-12.2 28.3 0l23.4 46.8c5.4 11.6 16.9 18.7 29.3 18.7H480c17.7 0 32-14.3 32-32V64c0-17.7-14.3-32-32-32H32zM128 128c0-17.7 14.3-32 32-32s32 14.3 32 32s-14.3 32-32 32s-32-14.3-32-32zm192 0c0-17.7 14.3-32 32-32s32 14.3 32 32s-14.3 32-32 32s-32-14.3-32-32zM576 352c0-17.7-14.3-32-32-32H32c-17.7 0-32 14.3-32 32s14.3 32 32 32H544c17.7 0 32-14.3 32-32zm0 96c0-17.7-14.3-32-32-32H32c-17.7 0-32 14.3-32 32s14.3 32 32 32H544c17.7 0 32-14.3 32-32z"/></svg>