<svg xmlns="http://www.w3.org/2000/svg" viewBox="0 0 448 512" fill="white"><path d="M128 0c-17.7 0-32 14.3-32 32v32c0 17.7 14.3 32 32 32s32-14.3 32-32V32c0-17.7-14.3-32-32-32zM64 96c0-17.7-14.3-32-32-32S0 78.3 0 96v32c0 17.7 14.3 32 32 32s32-14.3 32-32V96zm160-32c-17.7 0-32 14.3-32 32v32c0 17.7 14.3 32 32 32s32-14.3 32-32V96c0-17.7-14.3-32-32-32zm64 32c0-17.7-14.3-32-32-32s-32 14.3-32 32v32c0 17.7 14.3 32 32 32s32-14.3 32-32V128zM384 64c-17.7 0-32 14.3-32 32v32c0 17.7 14.3 32 32 32s32-14.3 32-32V96c0-17.7-14.3-32-32-32zm32 160c0-17.7-14.3-32-32-32s-32 14.3-32 32v192c0 17.7 14.3 32 32 32s32-14.3 32-32V224zM64 224c-17.7 0-32 14.3-32 32v192c0 17.7 14.3 32 32 32s32-14.3 32-32V256c0-17.7-14.3-32-32-32z"/></svg>