<svg xmlns="http://www.w3.org/2000/svg" viewBox="0 0 512 512" fill="white"><path d="M192 0c-17.7 0-32 14.3-32 32v48h-16c-35.3 0-64 28.7-64 64v32c0 17.7 14.3 32 32 32s32-14.3 32-32v-32c0-17.7 14.3-32 32-32h16v48c0 17.7 14.3 32 32 32s32-14.3 32-32V32c0-17.7-14.3-32-32-32zm128 0c-17.7 0-32 14.3-32 32v48h-16c-17.7 0-32 14.3-32 32v32c0 17.7 14.3 32 32 32s32-14.3 32-32v-32c0-17.7 14.3-32 32-32h16v48c0 17.7 14.3 32 32 32s32-14.3 32-32V32c0-17.7-14.3-32-32-32zM80 256c-17.7 0-32 14.3-32 32v160c0 17.7 14.3 32 32 32h352c17.7 0 32-14.3 32-32V288c0-17.7-14.3-32-32-32H80z"/></svg>