<svg xmlns="http://www.w3.org/2000/svg" viewBox="0 0 640 512" fill="#10b981"><path d="M96 128a128 128 0 1 1 256 0A128 128 0 1 1 96 128zM0 482.3C0 383.8 79.8 304 178.3 304h91.4C368.2 304 448 383.8 448 482.3c0 16.4-13.3 29.7-29.7 29.7H29.7C13.3 512 0 498.7 0 482.3zM504 312c-9.5 0-18.5-1.6-26.9-4.5l-29.1-9.7c-12.9-4.3-21.1-16.6-21.1-30.2v-1.2c0-12.1 7.8-23.2 19.1-27.6l29.1-11.6c17.4-7 36.9-4.5 51.2 6.1l8.2 6.1c7.7 5.7 12.3 14.6 12.3 24.2v1.2c0 13.6-8.2 25.9-21.1 30.2l-29.1 9.7C522.5 310.4 513.5 312 504 312z"/></svg>